<?xml version="1.0" encoding="utf-8"?>
<!-- Generator: Adobe Illustrator 24.2.3, SVG Export Plug-In . SVG Version: 6.00 Build 0)  -->
<svg version="1.1" id="Layer_1" xmlns="http://www.w3.org/2000/svg" xmlns:xlink="http://www.w3.org/1999/xlink" x="0px" y="0px"
	 viewBox="0 0 50 50" style="enable-background:new 0 0 50 50;" xml:space="preserve">
<style type="text/css">
	.st0{fill:#4682B4;}
	.st1{fill:#FFFFFF;}
</style>
<circle class="st0" cx="25" cy="25" r="25"/>
<path class="st1" d="M12.5,16.9h4.3v17.2H29v3.7H12.5V16.9z"/>
<path class="st1" d="M20.8,9.6h11c1.6,0,3,0.2,4.2,0.5s2.2,0.9,2.9,1.5c0.8,0.7,1.4,1.5,1.7,2.4c0.4,0.9,0.6,2,0.6,3.2
	c0,1.1-0.2,2.2-0.6,3.1c-0.4,0.9-0.9,1.8-1.7,2.5c-0.8,0.7-1.8,1.2-2.9,1.6c-1.2,0.4-2.6,0.6-4.2,0.6L25,25v5.6h-4.3V9.6z
	 M31.9,21.3c0.8,0,1.5-0.1,2.1-0.3c0.6-0.2,1.1-0.5,1.5-0.8c0.4-0.4,0.7-0.8,0.9-1.3c0.2-0.5,0.3-1.1,0.3-1.7c0-1.2-0.4-2.2-1.2-2.9
	c-0.8-0.7-2-1-3.6-1H25v8H31.9z"/>
</svg>
