<?xml version="1.0" encoding="utf-8"?>
<!-- Generator: Adobe Illustrator 24.2.3, SVG Export Plug-In . SVG Version: 6.00 Build 0)  -->
<svg version="1.1" id="Layer_1" xmlns="http://www.w3.org/2000/svg" xmlns:xlink="http://www.w3.org/1999/xlink" x="0px" y="0px"
	 viewBox="0 0 24 18" style="enable-background:new 0 0 24 18;" xml:space="preserve">
	<style type="text/css">
	.st0{fill: #f5f5f5;}
	</style>
	<path class="st0" d="M0,1v16c0,0.6,0.4,1,1,1h22c0.6,0,1-0.4,1-1V1c0-0.6-0.4-1-1-1H1C0.4,0,0,0.4,0,1z M21.5,2l-8.9,7.2
	c-0.4,0.3-0.9,0.3-1.2,0L2.5,2L21.5,2z M2,16V4.2l9.4,7.6c0.4,0.3,0.9,0.3,1.2,0L22,4.2V16H2z"/>
</svg>
