<?xml version="1.0" encoding="utf-8"?>
<!-- Generator: Adobe Illustrator 24.2.3, SVG Export Plug-In . SVG Version: 6.00 Build 0)  -->
<svg version="1.1" id="Layer_1" xmlns="http://www.w3.org/2000/svg" xmlns:xlink="http://www.w3.org/1999/xlink" x="0px" y="0px"
	 viewBox="0 0 54 54" style="enable-background:new 0 0 54 54;" xml:space="preserve">
<style type="text/css">
	.st0{fill:#4682B4;}
</style>
<path class="st0" d="M53,24.6L29.4,1c-1.4-1.4-3.6-1.4-4.9,0l-4.9,4.9l6.2,6.2c1.4-0.5,3.1-0.2,4.2,1c1.2,1.2,1.5,2.8,1,4.3l6,6
	c1.4-0.5,3.1-0.2,4.3,1c1.6,1.6,1.6,4.2,0,5.9c-1.6,1.6-4.2,1.6-5.8,0c-1.2-1.2-1.5-3-0.9-4.5L29,20.2v14.7c0.4,0.2,0.8,0.5,1.1,0.8
	c1.6,1.6,1.6,4.2,0,5.9c-1.6,1.6-4.2,1.6-5.9,0c-1.6-1.6-1.6-4.2,0-5.9c0.4-0.4,0.9-0.7,1.4-0.9V19.9c-0.5-0.2-0.9-0.5-1.4-0.9
	c-1.2-1.2-1.5-3-0.9-4.5l-6.1-6.1L1,24.5c-1.3,1.4-1.3,3.6,0,4.9L24.6,53c1.4,1.4,3.6,1.4,4.9,0L53,29.5C54.3,28.2,54.3,26,53,24.6
	L53,24.6z"/>
</svg>
