<?xml version="1.0" encoding="utf-8"?>
<!-- Generator: Adobe Illustrator 24.2.3, SVG Export Plug-In . SVG Version: 6.00 Build 0)  -->
<svg version="1.1" id="Layer_1" xmlns:serif="http://www.serif.com/"
	 xmlns="http://www.w3.org/2000/svg" xmlns:xlink="http://www.w3.org/1999/xlink" x="0px" y="0px" viewBox="0 0 55.4 54"
	 style="enable-background:new 0 0 55.4 54;" xml:space="preserve">
<style type="text/css">
	.st0{fill:none;}
	.st1{fill-rule:evenodd;clip-rule:evenodd;fill:#4682B4;}
</style>
<rect id="Icons" x="2.7" y="-147.8" class="st0" width="1000" height="625"/>
<g id="Icons1" serif:id="Icons">
	<g id="Strike">
	</g>
	<g id="H1">
	</g>
	<g id="H2">
	</g>
	<g id="H3">
	</g>
	<g id="list-ul">
	</g>
	<g id="hamburger-1">
	</g>
	<g id="hamburger-2">
	</g>
	<g id="list-ol">
	</g>
	<g id="list-task">
	</g>
	<g id="trash">
	</g>
	<g id="vertical-menu">
	</g>
	<g id="horizontal-menu">
	</g>
	<g id="sidebar-2">
	</g>
	<g id="Pen">
	</g>
	<g id="Pen1" serif:id="Pen">
	</g>
	<g id="clock">
	</g>
	<g id="external-link">
	</g>
	<g id="hr">
	</g>
	<g id="info">
	</g>
	<g id="warning">
	</g>
	<g id="plus-circle">
	</g>
	<g id="minus-circle">
	</g>
	<g id="vue">
	</g>
	<g id="cog">
	</g>
	<path id="github" class="st1" d="M27.7,0C12.4,0,0,12.4,0,27.7C0,39.9,7.9,50.3,18.9,54c1.4,0.3,1.9-0.6,1.9-1.3s0-2.4,0-4.7
		c-7.7,1.7-9.3-3.7-9.3-3.7c-1.3-3.2-3.1-4-3.1-4c-2.5-1.7,0.2-1.7,0.2-1.7c2.8,0.2,4.2,2.9,4.2,2.9c2.5,4.2,6.5,3,8.1,2.3
		c0.3-1.8,1-3,1.8-3.7C16.5,39.2,10,36.8,10,26.2c0-3,1.1-5.5,2.8-7.4c-0.3-0.7-1.2-3.5,0.3-7.3c0,0,2.3-0.7,7.6,2.8
		c2.2-0.6,4.6-0.9,6.9-0.9c2.4,0,4.7,0.3,6.9,0.9c5.3-3.6,7.6-2.8,7.6-2.8c1.5,3.8,0.6,6.6,0.3,7.3c1.8,1.9,2.8,4.4,2.8,7.4
		c0,10.6-6.5,13-12.6,13.7c1,0.9,1.9,2.5,1.9,5.1c0,3.7,0,6.7,0,7.6c0,0.7,0.5,1.6,1.9,1.3c11-3.7,18.9-14,18.9-26.3
		C55.4,12.4,43,0,27.7,0"/>
	<g id="logo">
	</g>
	<g id="eye-slash">
	</g>
	<g id="eye">
	</g>
	<g id="toggle-off">
	</g>
	<g id="shredder">
	</g>
	<g id="spinner--loading--dots-" serif:id="spinner [loading, dots]">
	</g>
	<g id="react">
	</g>
</g>
</svg>
