<?xml version="1.0" encoding="utf-8"?>
<!-- Generator: Adobe Illustrator 24.2.3, SVG Export Plug-In . SVG Version: 6.00 Build 0)  -->
<svg version="1.1" id="Layer_1" xmlns="http://www.w3.org/2000/svg" xmlns:xlink="http://www.w3.org/1999/xlink" x="0px" y="0px"
	 viewBox="0 0 50 50" style="enable-background:new 0 0 50 50;" xml:space="preserve">
<style type="text/css">
	.st0{fill:#4682B4;}
</style>
<path class="st0" d="M30.3,22.4c0.6,0,1.1,0,1.5,0.2v9.2C31.2,31.9,30.6,32,30,32c-2.5,0-4.5-1.4-4.5-4.8
	C25.5,24.2,27.5,22.4,30.3,22.4z M50,8v34c0,4.4-3.6,8-8,8H8c-4.4,0-8-3.6-8-8V8c0-4.4,3.6-8,8-8h34C46.4,0,50,3.6,50,8z M18.5,14.7
	c0-0.1,0-0.2-0.2-0.2H15c-0.1,0-0.2,0-0.2,0.2v19.9c0,0.2,0,0.3,0.2,0.3h3.3c0.1,0,0.2-0.1,0.2-0.3V14.7z M35.7,33.7
	c0-0.6-0.1-1.4-0.1-2V12.9c0-0.1,0-0.2-0.2-0.2H32c-0.1,0-0.2,0-0.2,0.2v6.4c-0.5-0.1-0.9-0.1-1.3-0.1c-5.4,0-8.8,3.6-8.8,8.1
	c0,5.2,3.4,7.9,7.9,7.9c1.9,0,3.9-0.3,5.9-1.2C35.7,33.9,35.7,33.9,35.7,33.7z"/>
</svg>
