<?xml version="1.0" encoding="utf-8"?>
<!-- Generator: Adobe Illustrator 24.2.3, SVG Export Plug-In . SVG Version: 6.00 Build 0)  -->
<svg version="1.1" id="Layer_1" xmlns="http://www.w3.org/2000/svg" xmlns:xlink="http://www.w3.org/1999/xlink" x="0px" y="0px"
	 viewBox="0 0 50 50" style="enable-background:new 0 0 50 50;" xml:space="preserve">
<style type="text/css">
	.st0{fill:#4682B4;}
</style>
<path class="st0" d="M0,0h50v50H0V0z M45.9,38.1c-0.4-2.3-1.9-4.2-6.3-6c-1.5-0.7-3.2-1.2-3.7-2.4c-0.2-0.7-0.2-1.1-0.1-1.5
	c0.3-1.4,1.9-1.8,3.2-1.4c0.8,0.3,1.6,0.9,2,1.9c2.2-1.4,2.2-1.4,3.7-2.3c-0.6-0.9-0.8-1.3-1.2-1.6c-1.3-1.5-3.1-2.2-5.9-2.2
	l-1.5,0.2c-1.4,0.3-2.8,1.1-3.6,2.1c-2.4,2.7-1.7,7.4,1.2,9.3c2.8,2.1,7,2.6,7.5,4.6c0.5,2.4-1.8,3.2-4.1,2.9
	c-1.7-0.4-2.6-1.2-3.7-2.8l-3.8,2.2c0.4,1,0.9,1.4,1.7,2.3c3.6,3.7,12.7,3.5,14.3-2.1c0.1-0.2,0.5-1.5,0.2-3.4L45.9,38.1z M27.2,23
	h-4.7c0,4,0,8,0,12.1c0,2.6,0.1,4.9-0.3,5.6c-0.7,1.4-2.5,1.3-3.3,1c-0.8-0.4-1.2-1-1.7-1.8c-0.1-0.2-0.2-0.4-0.3-0.4l-3.8,2.3
	c0.6,1.3,1.6,2.4,2.8,3.2c1.8,1.1,4.2,1.4,6.7,0.8c1.6-0.5,3-1.4,3.8-2.9c1.1-1.9,0.8-4.3,0.8-7C27.2,31.6,27.2,27.3,27.2,23
	L27.2,23z"/>
</svg>
