<?xml version="1.0" encoding="utf-8"?>
<!-- Generator: Adobe Illustrator 24.2.3, SVG Export Plug-In . SVG Version: 6.00 Build 0)  -->
<svg version="1.1" id="content_1_" xmlns="http://www.w3.org/2000/svg" xmlns:xlink="http://www.w3.org/1999/xlink" x="0px" y="0px"
	 viewBox="0 0 116 79.4" style="enable-background:new 0 0 116 79.4;" xml:space="preserve">
<style type="text/css">
	.st0{fill:#4682B4;}
	.st1{fill:#16110D;}
	.st2{fill:#F4F4F4;}
</style>
<g id="XMLID_4871_">
	<g id="XMLID_302_">
		<polygon id="XMLID_4817_" class="st0" points="28.1,44.8 33.3,78.5 115.6,0.5 		"/>
		<path id="XMLID_4818_" class="st1" d="M32.9,79.4l-5.4-34.9l0.3-0.2L115.3,0l0.7,0.8L33.6,78.9L32.9,79.4z M28.7,45.1l5,32.3
			l78.9-74.8L28.7,45.1z"/>
	</g>
	<polygon id="XMLID_5083_" class="st1" points="43.8,54.6 32.8,78.4 32.9,79.4 57.4,61.5 	"/>
	<polygon id="XMLID_4813_" class="st0" points="115.6,0.5 1.4,28.5 28.1,44.8 	"/>
	<polygon id="XMLID_4804_" class="st0" points="115.6,0.5 77.7,74.5 44.7,54.5 	"/>
	<path id="XMLID_4798_" class="st2" d="M115.6,5.8L78.7,77.9l-33-20l69.2-52.8C115.3,4.9,115.8,5.3,115.6,5.8z"/>
	<polygon id="XMLID_4806_" class="st2" points="27.5,44.5 28.7,45.1 29,47.2 105.8,8.3 114.5,1 103.5,6.6 0.3,31.9 27,48.3 28,47.8 
			"/>
	<g id="XMLID_5_">
		<path id="XMLID_4800_" class="st1" d="M116,0.8L115.3,0h0h0L27.6,21.5l0,0L1.2,28L0,28.3l28,17.2l32.3-16.4l0,0l49.2-24.9l1.1-0.6
			L86.5,22L44.4,54.1l-0.6,0.5l34.1,20.7l5.6-10.9l0,0L116,0.8L116,0.8L116,0.8z M28.1,44.2L2.7,28.7L29.9,22l28.9,6.6L28.1,44.2z
			 M60.2,27.9l-28.1-6.5L91.5,6.9l19.7-4.8L60.2,27.9z M77.5,73.7L45.7,54.5l22.1-16.8l15.1,25.6L77.5,73.7z M83.5,62.1L68.6,37
			L97,15.3l17-13L83.5,62.1z"/>
	</g>
	<g id="XMLID_74_">
		<g id="XMLID_314_">
			<path id="XMLID_4822_" class="st0" d="M67.2,50.4l-5.8,6.8l9,8.7l5.7-6.9L67.2,50.4z M70.3,62.5l-6.1-5.8l3.2-3.8l6.1,5.7
				L70.3,62.5z"/>
			<path id="XMLID_298_" class="st1" d="M70.2,62.5l-7-6.7l3.9-4.6l6.9,6.6L70.2,62.5z M64,55.8l6.2,5.9l3.1-3.8l-6.2-5.9L64,55.8z"
				/>
		</g>
		<path id="XMLID_4808_" class="st1" d="M70.4,65.2L60.8,56l6.3-7.4l9.6,9.1L70.4,65.2z M61.8,55.9l8.5,8.1l5.2-6.3l-8.4-8
			L61.8,55.9z"/>
	</g>
	<g id="XMLID_313_">
		<path id="XMLID_4803_" class="st1" d="M75.6,43.7c0,5.1-4.6,9.3-10.1,9.3c-4.8,0-8.8-3-9.9-7.1L55,46.3c1.2,4.2,5.4,7.3,10.4,7.3
			c5.9,0,10.7-4.4,10.7-9.9c0-3.9-2.5-7.3-6.1-8.9l-0.5,0.4C73.1,36.7,75.6,39.9,75.6,43.7z"/>
		<path id="XMLID_4802_" class="st1" d="M73.5,43.7c0,4-3.5,7.2-7.9,7.2c-4.1,0-7.5-2.9-7.9-6.6l-0.6,0.4c0.6,3.8,4.1,6.8,8.4,6.8
			c4.7,0,8.5-3.5,8.5-7.8c0-3.4-2.4-6.4-5.8-7.4l-0.6,0.5C71,37.6,73.5,40.4,73.5,43.7z"/>
	</g>
</g>
</svg>
