<?xml version="1.0" encoding="utf-8"?>
<!-- Generator: Adobe Illustrator 24.2.3, SVG Export Plug-In . SVG Version: 6.00 Build 0)  -->
<svg version="1.1" id="Layer_1" xmlns="http://www.w3.org/2000/svg" xmlns:xlink="http://www.w3.org/1999/xlink" x="0px" y="0px"
	 viewBox="0 0 50 50" style="enable-background:new 0 0 50 50;" xml:space="preserve">
<style type="text/css">
	.st0{fill:#4682B4;}
</style>
<path class="st0" d="M18,17.6c-1.1,0-2,0-2.3,0.1v7.2c0.5,0,0.9,0,2,0c2.6,0,4.8-0.9,4.8-3.7C22.5,18.9,20.9,17.6,18,17.6z"/>
<path class="st0" d="M42,0H8C3.6,0,0,3.6,0,8v34c0,4.4,3.6,8,8,8h34c4.4,0,8-3.6,8-8V8C50,3.6,46.4,0,42,0z M17.8,28.3
	c-1,0-1.2,0-2,0v6.4c0,0.2-0.1,0.2-0.2,0.2H12V14.5c1.1,0,3.5-0.1,6-0.1c6,0,8.3,3.4,8.3,6.8C26.3,26.1,22.5,28.3,17.8,28.3z
	 M33.5,35.1c-2,0-3.7-0.4-4.6-1v-3.2c0-0.2,0.1-0.2,0.2-0.2c1.3,0.9,3,1.2,4.4,1.2c1.6,0,2.4-0.6,2.4-1.4s-0.6-1.3-2.5-2
	c-3.4-1.2-4.6-2.6-4.6-4.9c0-2.4,1.9-4.6,5.8-4.6c1.8,0,3.2,0.2,3.9,0.6c0.2,0.1,0.2,0.2,0.2,0.4v2.7c0,0.2-0.1,0.2-0.3,0.2
	c-1-0.3-2.5-0.7-3.9-0.7c-1.6,0-2.2,0.7-2.2,1.3c0,0.7,0.5,1.1,2.5,1.9c3.5,1.3,4.8,2.7,4.8,4.9C39.6,33.2,37.3,35.1,33.5,35.1z"/>
</svg>
