<?xml version="1.0" encoding="utf-8"?>
<!-- Generator: Adobe Illustrator 24.2.3, SVG Export Plug-In . SVG Version: 6.00 Build 0)  -->
<svg version="1.1" id="Layer_1" xmlns="http://www.w3.org/2000/svg" xmlns:xlink="http://www.w3.org/1999/xlink" x="0px" y="0px"
	 viewBox="0 0 50 47.5" style="enable-background:new 0 0 50 47.5;" xml:space="preserve">
<style type="text/css">
	.st0{fill:none;}
	.st1{fill:#4682B4;}
</style>
<path class="st0" d="M-39-40.3H89v128H-39V-40.3z"/>
<path class="st1" d="M34.6,33.2c-3.5,7.2-9.7,12-17.8,13.6c-1.2,0.3-2.5,0.5-3.8,0.4c-4.7,0-9-2-11.1-5.2c-2.8-4.3-3.8-13.3,5.5-20
	c0.2,1,0.6,2.4,0.8,3.2c-1.8,1.3-3.3,3.1-4.3,5.1c-1.7,3.4-1.5,6.7,0.5,9.9c1.4,2.1,3.6,3.4,6.5,3.8c3.6,0.5,7.2-0.2,10.4-2
	c5-2.6,8.3-5.7,10.4-10c-0.6-0.6-1-1.5-1-2.3c-0.1-2,1.5-3.6,3.4-3.7h0.1c2,0,3.6,1.6,3.6,3.6C37.9,31.5,36.5,33,34.6,33.2
	L34.6,33.2z M45.8,25.3c4.8,5.4,4.9,11.8,3.1,15.5c-1.7,3.4-6.3,6.7-12.3,6.7c-2.8-0.1-5.6-0.7-8.2-2c0.9-0.6,2.2-1.7,2.9-2.3
	c2,0.9,4.1,1.3,6.3,1.3c3.9,0,6.9-1.8,8.7-5.2c1.1-2.2,1.2-4.8,0.1-7.5c-1.3-3.4-3.7-6.2-6.7-8.1c-4-2.7-8.7-4.1-13.6-4.1H25
	c-0.5,1.3-1.8,2.1-3.1,2.2h-0.1c-2,0-3.5-1.6-3.5-3.6c0-1.9,1.5-3.4,3.4-3.5h0.1c1.3,0,2.5,0.7,3.1,1.9h1
	C33.9,16.5,41,19.6,45.8,25.3z M13.5,34.2c-0.1-0.6,0.1-1.3,0.4-1.8c-3.6-6.2-5.5-14-2.5-22.1C13.5,4.1,18.8,0,24.5,0
	C30.6,0,37,5.3,37.8,15.7c-1-0.3-2.3-0.8-3.2-1c-0.2-3.4-3.1-11.8-9.8-11.6c-2.4,0.1-6,1.2-7.8,3.6c-2.3,2.8-3.6,6.3-3.8,9.9
	c-0.4,4.9,0.7,9.9,3.3,14.1c0.1-0.1,0.3-0.1,0.4-0.1H17c2,0,3.6,1.5,3.6,3.5s-1.5,3.6-3.5,3.6H17C15.2,37.7,13.6,36.1,13.5,34.2
	L13.5,34.2z"/>
</svg>
