<?xml version="1.0" encoding="utf-8"?>
<!-- Generator: Adobe Illustrator 24.2.3, SVG Export Plug-In . SVG Version: 6.00 Build 0)  -->
<svg version="1.1" id="Layer_1" xmlns="http://www.w3.org/2000/svg" xmlns:xlink="http://www.w3.org/1999/xlink" x="0px" y="0px"
	 viewBox="0 0 54 32.5" style="enable-background:new 0 0 54 32.5;" xml:space="preserve">
<style type="text/css">
	.st0{fill:#4682B4;}
</style>
<path class="st0" d="M13.5,10.8C15.3,3.6,19.8,0,27,0c10.8,0,12.2,8.1,17.5,9.5c3.6,0.9,6.8-0.5,9.5-4.1
	c-1.8,7.2-6.3,10.8-13.5,10.8c-10.8,0-12.2-8.1-17.5-9.5C19.3,5.9,16.2,7.2,13.5,10.8z M0,27.1c1.8-7.2,6.3-10.8,13.5-10.8
	c10.8,0,12.1,8.1,17.5,9.5c3.6,0.9,6.8-0.5,9.5-4.1c-1.8,7.2-6.3,10.8-13.5,10.8c-10.8,0-12.1-8.1-17.5-9.5
	C5.8,22.1,2.7,23.5,0,27.1z"/>
</svg>
