<?xml version="1.0" encoding="utf-8"?>
<!-- Generator: Adobe Illustrator 24.2.3, SVG Export Plug-In . SVG Version: 6.00 Build 0)  -->
<svg version="1.1" id="Layer_1" xmlns="http://www.w3.org/2000/svg" xmlns:xlink="http://www.w3.org/1999/xlink" x="0px" y="0px"
	 viewBox="0 0 50 50" style="enable-background:new 0 0 50 50;" xml:space="preserve">
<style type="text/css">
	.st0{fill:#4682B4;}
</style>
<path class="st0" d="M0,25v25h50V0H0V25z M40.3,23c1.3,0.3,2.2,0.9,3.1,1.8c0.5,0.5,1.1,1.4,1.2,1.6c0,0.1-2.2,1.5-3.5,2.3
	c0,0-0.2-0.2-0.5-0.5c-0.6-0.9-1.3-1.3-2.4-1.4c-1.5-0.1-2.5,0.7-2.5,2c0,0.3,0.1,0.7,0.2,0.9c0.3,0.7,1,1.1,2.9,1.9
	c3.6,1.5,5.1,2.6,6.1,4c1.1,1.6,1.3,4.2,0.6,6.1c-0.8,2.1-2.8,3.5-5.5,4c-0.9,0.2-2.9,0.1-3.8,0c-2-0.4-3.9-1.4-5.1-2.7
	c-0.5-0.5-1.4-1.8-1.3-1.9c0,0,0.2-0.2,0.5-0.3s1.1-0.6,1.9-1.1l1.4-0.8l0.3,0.4c0.4,0.6,1.3,1.5,1.9,1.8c1.6,0.8,3.8,0.7,4.9-0.2
	c0.4-0.4,0.7-0.9,0.7-1.5s-0.1-0.8-0.4-1.3c-0.4-0.6-1.2-1-3.4-2c-2.6-1.1-3.7-1.8-4.7-2.9c-0.6-0.7-1.1-1.6-1.4-2.5
	c-0.2-0.7-0.2-2.5-0.1-3.2c0.5-2.5,2.4-4.2,5.1-4.7C37.4,22.7,39.4,22.8,40.3,23L40.3,23z M28.6,25.1v2h-6.5v18.5h-4.6V27.1H11v-2
	c0-1.1,0-2,0.1-2.1c0,0,4,0,8.8,0h8.7L28.6,25.1z"/>
</svg>
