<?xml version="1.0" encoding="utf-8"?>
<!-- Generator: Adobe Illustrator 24.2.3, SVG Export Plug-In . SVG Version: 6.00 Build 0)  -->
<svg version="1.1" id="Layer_1" xmlns="http://www.w3.org/2000/svg" xmlns:xlink="http://www.w3.org/1999/xlink" x="0px" y="0px"
	 viewBox="0 0 50 49.7" style="enable-background:new 0 0 50 49.7;" xml:space="preserve">
<style type="text/css">
	.st0{fill:#4682B4;}
</style>
<path class="st0" d="M49.9,7.3L49.9,7.3c-0.2-0.9-0.8-1.7-1.7-2l-7.6-3.7L38,0.3c-0.4-0.1-0.7-0.2-1-0.3c-0.9-0.1-1.9,0.2-2.6,0.9
	c0,0,0.1,0,0.1-0.1c0,0-0.1,0-0.1,0.1l-19.7,18l-8.6-6.5c-0.8-0.6-1.9-0.6-2.7,0.1L0.7,15l-0.1,0.1C-0.2,16-0.1,17.3,0.7,18l7.4,6.8
	l-7.4,6.8c-0.9,0.8-0.9,2.1-0.1,2.9l0.1,0.1l2.8,2.5c0.7,0.7,1.9,0.7,2.7,0.1l8.6-6.5l19.7,18c0.9,0.9,2.4,1.2,3.6,0.6l10.3-4.9
	c1.1-0.5,1.8-1.6,1.8-2.8v-0.1V8.2V8.1l0,0C50,7.8,50,7.6,49.9,7.3z M22.5,24.9l15-11.3v22.7L22.5,24.9z"/>
</svg>
