<?xml version="1.0" encoding="utf-8"?>
<!-- Generator: Adobe Illustrator 24.2.3, SVG Export Plug-In . SVG Version: 6.00 Build 0)  -->
<svg version="1.1" id="Layer_1" xmlns="http://www.w3.org/2000/svg" xmlns:xlink="http://www.w3.org/1999/xlink" x="0px" y="0px"
	 viewBox="0 0 400 400" style="enable-background:new 0 0 400 400;" xml:space="preserve">
<style type="text/css">
	.st0{fill:#EBAE8C;}
	.st1{enable-background:new    ;}
</style>
<circle class="st0" cx="200" cy="200" r="200"/>
<g class="st1">
	<path d="M86.7,206.8v-21.3l-7.1-5.8c1.1,0,2.4,0,3.8,0c1.4,0,2.8,0,4.3,0c1.5,0,3,0,4.5,0c1.5,0,2.9,0,4.2,0c1.3,0,2.5,0,3.6,0
		c1.1,0,1.9,0,2.5,0c1.5,0,3,0,4.6,0.1c1.6,0.1,3.2,0.2,4.7,0.4c1.5,0.2,3,0.5,4.4,0.9s2.6,0.9,3.6,1.6c1,0.7,1.9,1.5,2.5,2.5
		c0.6,1,0.9,2.2,0.9,3.6c0,1.2-0.2,2.2-0.6,3.1c-0.4,0.8-1,1.5-1.8,2.1c-0.8,0.6-1.7,1-2.9,1.3c-1.1,0.3-2.4,0.5-3.8,0.7
		c1.7,0.2,3.2,0.4,4.6,0.8c1.4,0.3,2.6,0.8,3.5,1.4c1,0.6,1.7,1.3,2.3,2.2c0.5,0.9,0.8,2,0.8,3.3c0,1.4-0.3,2.6-0.9,3.6
		c-0.6,1-1.5,1.8-2.5,2.5c-1,0.7-2.3,1.2-3.6,1.6c-1.4,0.4-2.8,0.7-4.4,0.9c-1.5,0.2-3.1,0.3-4.7,0.4c-1.6,0.1-3.1,0.1-4.6,0.1
		c-0.7,0-1.6,0-2.8,0c-1.2,0-2.5,0-3.9,0c-1.4,0-3,0-4.6,0c-1.6,0-3.2,0-4.8,0c-1.6,0-3.2,0-4.7,0s-2.9,0-4.1,0L86.7,206.8z
		 M101.7,193.8c0.5,0,1,0,1.7,0c0.6,0,1.3-0.1,2-0.1c0.7-0.1,1.3-0.2,2-0.4s1.2-0.4,1.7-0.8c0.5-0.3,0.9-0.7,1.2-1.2
		c0.3-0.5,0.5-1.1,0.5-1.9c0-1.1-0.3-1.9-0.8-2.6s-1.3-1.1-2.2-1.5c-0.9-0.3-1.9-0.6-2.9-0.7c-1.1-0.1-2.1-0.2-3.1-0.2h-2.9v9.3
		H101.7z M103.3,207.8c0.7,0,1.4,0,2.1,0c0.7,0,1.5-0.1,2.2-0.2c0.7-0.1,1.4-0.3,2-0.5c0.6-0.2,1.2-0.5,1.7-0.9
		c0.5-0.4,0.8-0.9,1.1-1.4c0.3-0.6,0.4-1.3,0.4-2.1c0-0.9-0.2-1.6-0.6-2.2c-0.4-0.6-1-1.1-1.8-1.5c-0.8-0.4-1.8-0.6-3-0.8
		c-1.2-0.2-2.6-0.2-4.2-0.2h-4.5v9.8H103.3z"/>
	<path d="M129.6,199.9c0-2.3,0.5-4.3,1.4-6c0.9-1.7,2.3-3.1,3.9-4.2c1.7-1.1,3.7-2,6-2.5c2.3-0.6,4.8-0.8,7.6-0.8
		c2.7,0,5.3,0.3,7.6,0.8c2.3,0.6,4.3,1.4,6,2.5c1.7,1.1,3,2.5,3.9,4.2c0.9,1.7,1.4,3.7,1.4,6c0,2.4-0.5,4.5-1.4,6.2
		c-0.9,1.7-2.3,3.1-3.9,4.2c-1.7,1.1-3.7,1.9-6,2.4c-2.3,0.5-4.8,0.8-7.6,0.8c-2.7,0-5.3-0.3-7.6-0.8c-2.3-0.5-4.3-1.3-6-2.4
		c-1.7-1.1-3-2.5-3.9-4.2C130.1,204.4,129.6,202.3,129.6,199.9z M141.7,199.9c0,1.4,0.2,2.7,0.5,3.8s0.8,2.1,1.5,2.9
		c0.6,0.8,1.3,1.4,2.2,1.9c0.8,0.4,1.7,0.7,2.7,0.7c0.9,0,1.8-0.2,2.7-0.7c0.8-0.4,1.6-1.1,2.2-1.9c0.6-0.8,1.1-1.8,1.5-2.9
		c0.4-1.1,0.5-2.4,0.5-3.8c0-1.4-0.2-2.7-0.5-3.9c-0.4-1.2-0.8-2.2-1.5-3c-0.6-0.8-1.3-1.5-2.2-1.9s-1.7-0.7-2.7-0.7
		c-0.9,0-1.8,0.2-2.7,0.7c-0.8,0.5-1.6,1.1-2.2,1.9c-0.6,0.8-1.1,1.8-1.5,3C141.8,197.2,141.7,198.5,141.7,199.9z"/>
	<path d="M172,199.9c0-2.3,0.5-4.3,1.4-6c0.9-1.7,2.3-3.1,3.9-4.2c1.7-1.1,3.7-2,6-2.5c2.3-0.6,4.8-0.8,7.6-0.8
		c2.7,0,5.3,0.3,7.6,0.8s4.3,1.4,6,2.5c1.7,1.1,3,2.5,3.9,4.2c0.9,1.7,1.4,3.7,1.4,6c0,2.4-0.5,4.5-1.4,6.2
		c-0.9,1.7-2.3,3.1-3.9,4.2c-1.7,1.1-3.7,1.9-6,2.4c-2.3,0.5-4.8,0.8-7.6,0.8c-2.7,0-5.3-0.3-7.6-0.8c-2.3-0.5-4.3-1.3-6-2.4
		c-1.7-1.1-3-2.5-3.9-4.2C172.5,204.4,172,202.3,172,199.9z M184.1,199.9c0,1.4,0.2,2.7,0.5,3.8s0.8,2.1,1.5,2.9
		c0.6,0.8,1.3,1.4,2.2,1.9c0.8,0.4,1.7,0.7,2.7,0.7c0.9,0,1.8-0.2,2.7-0.7c0.8-0.4,1.6-1.1,2.2-1.9c0.6-0.8,1.1-1.8,1.5-2.9
		c0.4-1.1,0.5-2.4,0.5-3.8c0-1.4-0.2-2.7-0.5-3.9c-0.4-1.2-0.8-2.2-1.5-3c-0.6-0.8-1.3-1.5-2.2-1.9s-1.7-0.7-2.7-0.7
		c-0.9,0-1.8,0.2-2.7,0.7c-0.8,0.5-1.6,1.1-2.2,1.9c-0.6,0.8-1.1,1.8-1.5,3C184.2,197.2,184.1,198.5,184.1,199.9z"/>
	<path d="M219.2,207v-24.9l-6-5.1l16.7-0.7V199l8.6-6.6l-3.8-5.1h17.9l-12.8,9.8l11.2,12.3l4.2,3.3h-20l2.4-3.4l-5.4-6.4l-2.3,1.7
		v3.1l3.8,4.9H213L219.2,207z"/>
	<path d="M262,207v-24.9l-6-5.1l16.7-0.7V207l6.2,5.6h-23.2L262,207z"/>
	<path d="M290.2,211.1c-0.2,0.7-0.3,1.3-0.3,2c0,0.7,0.1,1.4,0.3,2.1c0.2,0.7,0.5,1.3,1,1.8c0.4,0.5,1,0.9,1.7,1.2
		c0.7,0.3,1.5,0.4,2.6,0.4c0.8,0,1.6-0.2,2.2-0.5s1.2-0.8,1.7-1.3c0.5-0.5,0.9-1.2,1.2-1.9c0.3-0.7,0.6-1.5,0.8-2.2h-7.3l-8.9-20.4
		l-5.9-5h20.4l-2.7,3.8l5.5,16.7l4.6-16.5l-2.8-4h16.7l-5.4,4.4l-7.7,21c-0.8,2.2-1.7,4.1-2.7,5.5c-1,1.4-2.1,2.5-3.3,3.3
		c-1.2,0.8-2.5,1.4-3.9,1.7c-1.4,0.3-3,0.4-4.6,0.4c-2,0-3.8-0.2-5.3-0.7c-1.6-0.4-2.9-1.1-3.9-1.9c-1.1-0.8-1.9-1.8-2.4-2.9
		c-0.6-1.1-0.8-2.4-0.8-3.8c0-0.4,0-0.7,0.1-1.1c0.1-0.4,0.1-0.8,0.2-1.1L290.2,211.1z"/>
</g>
</svg>
