<?xml version="1.0" encoding="utf-8"?>
<!-- Generator: Adobe Illustrator 24.2.3, SVG Export Plug-In . SVG Version: 6.00 Build 0)  -->
<svg version="1.1" id="Layer_1" xmlns="http://www.w3.org/2000/svg" xmlns:xlink="http://www.w3.org/1999/xlink" x="0px" y="0px"
	 viewBox="0 0 50 50" style="enable-background:new 0 0 50 50;" xml:space="preserve">
<style type="text/css">
	.st0{fill:#4682B4;}
</style>
<g>
	<path class="st0" d="M37.7,25.2c0,0,0,0.1,0,0.2c-0.1,0-0.5,0-1.7,0v0.1h-4.7c0.3-1.6,1.3-3.2,3.4-3.2
		C37.1,22.3,37.7,24.3,37.7,25.2z M14.3,26.1h5.4c-0.7-2-2.1-6.4-2.7-8.5C16.5,19.7,15.3,23.3,14.3,26.1z M50,8v34c0,4.4-3.6,8-8,8
		H8c-4.4,0-8-3.6-8-8V8c0-4.4,3.6-8,8-8h34C46.4,0,50,3.6,50,8z M26.5,34.5l-7.2-19.9c0-0.2,0-0.2-0.2-0.2h-4.3
		c-0.1,0-0.2,0.1-0.2,0.2c-0.1,1.1-0.2,1.4-0.3,1.7L7.9,34.5c0,0.2,0,0.3,0.2,0.3h3.2c0.1,0,0.2,0,0.3-0.2l1.7-5.1v-0.1h7.4l1.8,5.2
		c0.1,0.1,0.1,0.2,0.3,0.2h3.5C26.5,34.8,26.5,34.7,26.5,34.5z M41.3,25.8c0-3-1.8-6.6-6.4-6.6c-4.7,0-7.3,3.8-7.3,8.1
		c0,3.8,2,7.8,7.7,7.8c2.2,0,3.5-0.3,4.7-0.9c0.1,0,0.2-0.1,0.2-0.3v-2.6c0-0.1-0.1-0.2-0.2-0.1c-1.2,0.5-2.5,0.7-3.9,0.7
		c-3.2,0-4.6-1.7-4.7-3.9h6.3c1.5,0,2.8,0,3.3-0.1c0.1,0,0.2-0.1,0.2-0.2C41.3,27.4,41.3,26.7,41.3,25.8z"/>
</g>
</svg>
