<?xml version="1.0" encoding="utf-8"?>
<!-- Generator: Adobe Illustrator 24.2.3, SVG Export Plug-In . SVG Version: 6.00 Build 0)  -->
<svg version="1.1" id="Layer_1" xmlns="http://www.w3.org/2000/svg" xmlns:xlink="http://www.w3.org/1999/xlink" x="0px" y="0px"
	 viewBox="0 0 54 54" style="enable-background:new 0 0 54 54;" xml:space="preserve">
<style type="text/css">
	.st0{fill-rule:evenodd;clip-rule:evenodd;fill:#4682B4;}
</style>
<path class="st0" d="M0.1,29.2C-1.2,12.6,12.6-1.2,29.2,0.1c13.1,1,23.7,11.6,24.7,24.7c1.3,16.6-12.5,30.4-29.1,29.1
	C11.7,52.9,1.1,42.3,0.1,29.2z M22.5,43.1c2.6-0.4,4.5-2.9,4.5-5.5v-5.2c0,0-2.9,0-5.2,0c-2.7,0-5.1,1.8-5.5,4.5
	C15.7,40.6,18.8,43.7,22.5,43.1z M16.3,28.1c0.5,2.5,2.9,4.3,5.5,4.3H27V21.6h-5.4C18.3,21.6,15.6,24.6,16.3,28.1z M16.3,17.3
	c0.5,2.5,2.9,4.3,5.5,4.3H27V10.8h-5.4C18.3,10.8,15.6,13.8,16.3,17.3z M27,10.8v10.8h5.2c2.6,0,5-1.7,5.5-4.3
	c0.7-3.5-1.9-6.5-5.3-6.5C32.4,10.8,27,10.8,27,10.8z M37.7,28.2c0.9-3.9-2.6-7.4-6.5-6.5c-2,0.4-3.6,2-4,4
	c-0.9,3.9,2.6,7.4,6.5,6.5C35.6,31.8,37.2,30.2,37.7,28.2z"/>
</svg>
