<?xml version="1.0" encoding="utf-8"?>
<!-- Generator: Adobe Illustrator 24.2.3, SVG Export Plug-In . SVG Version: 6.00 Build 0)  -->
<svg version="1.1" id="Layer_1" xmlns="http://www.w3.org/2000/svg" xmlns:xlink="http://www.w3.org/1999/xlink" x="0px" y="0px"
	 viewBox="0 0 50 50" style="enable-background:new 0 0 50 50;" xml:space="preserve">
<style type="text/css">
	.st0{fill:#4682B4;}
</style>
<path class="st0" d="M20.9,17.6c0.6,2.1,2,6.5,2.7,8.5h-5.4C19.2,23.3,20.4,19.7,20.9,17.6z M50,8v34c0,4.4-3.6,8-8,8H8
	c-4.4,0-8-3.6-8-8V8c0-4.4,3.6-8,8-8h34C46.4,0,50,3.6,50,8z M30.4,34.5l-7.2-19.9c0-0.2,0-0.2-0.2-0.2h-4.3c-0.1,0-0.2,0.1-0.2,0.2
	c-0.1,1.1-0.2,1.4-0.3,1.7l-6.4,18.2c0,0.2,0,0.3,0.2,0.3h3.1c0.1,0,0.2,0,0.3-0.2l1.7-5.1v-0.1h7.5l1.8,5.2
	c0.1,0.1,0.1,0.2,0.3,0.2h3.5C30.4,34.8,30.4,34.7,30.4,34.5z M36.3,19.7c0-0.2,0-0.2-0.2-0.2h-3.3c-0.1,0-0.2,0-0.2,0.2l-0.1,14.7
	c0,0.2,0.1,0.3,0.3,0.3H36c0.2,0,0.3,0,0.3-0.2V19.7z M36.6,15.3c0-1.2-0.8-2.1-2.1-2.1c-1.2,0-2.1,0.8-2.1,2.1s0.8,2.2,2.1,2.1
	C35.8,17.4,36.6,16.6,36.6,15.3z"/>
</svg>
