<?xml version="1.0" encoding="utf-8"?>
<!-- Generator: Adobe Illustrator 24.2.3, SVG Export Plug-In . SVG Version: 6.00 Build 0)  -->
<svg version="1.1" id="Layer_1" xmlns="http://www.w3.org/2000/svg" xmlns:xlink="http://www.w3.org/1999/xlink" x="0px" y="0px"
	 viewBox="0 0 249.8 249" style="enable-background:new 0 0 249.8 249;" xml:space="preserve">
<style type="text/css">
	.st0{fill:#F5F5F5;}
</style>
<g>
	<path class="st0" d="M0,116.6c0.4-3.9,0.8-7.7,1.4-11.6c5.2-34.9,22-62.9,50.2-84.2C64.1,11.4,78,4.7,93.1,0.4
		c3.9-1.1,7.7,0.1,9.8,3.1c2.2,3.1,2.1,6.7-0.6,10.1c-8,10-13.7,21.1-16.8,33.5c-5.7,22-4,43.4,5.5,64
		c10.1,21.7,26.3,37.4,48.2,46.8c15.9,6.9,32.6,9.1,49.9,6.7c17.2-2.4,32.4-9.3,45.9-19.9c1.8-1.4,4-2.7,6.2-3.1
		c5.8-0.9,9.9,3.8,8.5,9.5c-4.9,20.2-13.8,38.3-27.5,54c-16.4,18.9-36.7,32-60.8,38.7c-38,10.6-73.7,5-106.3-17.2
		C27.2,207.6,9.9,181,2.8,148c-1.1-5.1-1.5-10.4-2.2-15.7c-0.1-0.9-0.3-1.7-0.4-2.6C0,125.4,0,121,0,116.6z M75.7,25.4
		c-38.7,19.8-65,64.5-57,114.2c8.1,50.2,48.6,87.7,99.7,92c49,4.1,89.8-24.9,107.3-60.4c-46,19.1-89.3,15-125.8-20.3
		C63.4,115.4,57.9,72.3,75.7,25.4z"/>
</g>
</svg>
