<?xml version="1.0" encoding="utf-8"?>
<!-- Generator: Adobe Illustrator 24.2.3, SVG Export Plug-In . SVG Version: 6.00 Build 0)  -->
<svg version="1.1" id="Layer_2_1_" xmlns="http://www.w3.org/2000/svg" xmlns:xlink="http://www.w3.org/1999/xlink" x="0px" y="0px"
	 viewBox="0 0 56.2 50" style="enable-background:new 0 0 56.2 50;" xml:space="preserve">
<style type="text/css">
	.st0{fill:#4682B4;}
</style>
<g>
	<ellipse class="st0" cx="28.1" cy="25" rx="5" ry="5"/>
	<path class="st0" d="M53.3,19.9c-1.7-1.4-4.2-2.7-7.1-3.7c-0.6-0.2-1.2-0.4-1.8-0.6c0.1-0.4,0.2-0.8,0.3-1.2
		c0.7-3.2,0.8-6.1,0.4-8.5c-0.4-2.6-1.5-4.4-3-5.2s-3.5-0.8-5.8,0C34.2,1.5,31.8,3,29.5,5c-0.5,0.4-0.9,0.8-1.4,1.3
		c-0.3-0.3-0.6-0.6-0.9-0.9c-2.4-2.2-4.9-3.8-7.2-4.6c-2.4-0.9-4.5-0.9-6,0c-1.5,0.8-2.5,2.6-2.9,5c-0.4,2.2-0.3,5,0.3,8
		c0.1,0.6,0.3,1.2,0.4,1.9c-0.7,0.2-1.4,0.4-2.1,0.7c-2.9,1-5.3,2.3-7,3.7C1,21.6,0,23.3,0,25s1,3.5,2.9,5.2
		c1.8,1.5,4.3,2.9,7.3,3.9c0.5,0.2,1,0.3,1.5,0.5c-0.2,0.7-0.3,1.4-0.4,2c-0.6,3-0.6,5.7-0.2,7.9c0.4,2.4,1.4,4.1,2.9,4.9
		c0.8,0.4,1.7,0.7,2.7,0.7s2.1-0.2,3.3-0.6c2.2-0.8,4.7-2.3,7.1-4.4c0.4-0.3,0.8-0.7,1.2-1.1c0.5,0.5,1,0.9,1.5,1.4
		c2.3,2,4.6,3.4,6.7,4.2c1.1,0.4,2.1,0.6,3.1,0.6s1.9-0.2,2.6-0.7c1.5-0.9,2.5-2.6,3-5.1c0.4-2.3,0.3-5.2-0.3-8.3
		c-0.1-0.5-0.2-1-0.3-1.5c0.4-0.1,0.7-0.2,1-0.3c3.1-1,5.7-2.4,7.6-3.9c2-1.6,3.1-3.4,3.1-5.2C56.2,23.3,55.2,21.5,53.3,19.9z
		 M37.2,2.9c0.9-0.3,1.7-0.5,2.4-0.5c0.5,0,1,0.1,1.4,0.3c0.9,0.5,1.5,1.8,1.8,3.6c0.3,2.1,0.2,4.7-0.4,7.6
		c-0.1,0.4-0.2,0.7-0.3,1.1c-2.3-0.5-4.9-0.9-7.5-1.2c-0.6-0.8-1.2-1.6-1.8-2.4c-1-1.3-2-2.5-3-3.5c0.4-0.4,0.9-0.8,1.3-1.2
		C33.2,4.9,35.3,3.6,37.2,2.9z M40.1,28.8c0.6,1.4,1,2.7,1.4,3.9c-1.6,0.4-3.4,0.7-5.2,0.9c0.6-0.9,1.2-1.9,1.7-2.9
		c0.6-1,1.1-2,1.6-3C39.8,28.1,40,28.4,40.1,28.8z M36,29.5c-0.9,1.5-1.8,3-2.7,4.3c-1.7,0.1-3.4,0.2-5.2,0.2
		c-1.8,0-3.5-0.1-5.1-0.2c-1-1.4-1.9-2.9-2.7-4.4l0,0c-0.9-1.5-1.7-3-2.4-4.5c0.7-1.5,1.5-3,2.4-4.5l0,0c0.9-1.5,1.8-3,2.7-4.3
		c1.7-0.1,3.4-0.2,5.1-0.2s3.5,0.1,5.1,0.2c0.9,1.4,1.8,2.8,2.7,4.3s1.7,3,2.4,4.5C37.7,26.5,36.8,28,36,29.5z M28.2,40.4
		c-0.8-0.9-1.7-1.9-2.5-3c-0.3-0.4-0.6-0.7-0.8-1.1c1.1,0,2.2,0.1,3.3,0.1c1.1,0,2.3,0,3.4-0.1c-0.2,0.3-0.4,0.6-0.7,0.9
		C30,38.4,29.1,39.5,28.2,40.4z M16.6,27.8c0.5,1,1,1.9,1.6,2.9l0,0c0.6,1,1.2,1.9,1.8,2.9c-0.4,0-0.8-0.1-1.1-0.1
		c-1.4-0.2-2.8-0.4-4.1-0.7c0.4-1.2,0.8-2.4,1.3-3.7C16.2,28.7,16.4,28.3,16.6,27.8z M18.2,19.3c-0.6,1-1.1,1.9-1.6,2.9
		c-0.7-1.7-1.3-3.3-1.8-4.9c1.2-0.3,2.4-0.5,3.7-0.7c0.5-0.1,0.9-0.1,1.4-0.2C19.3,17.4,18.7,18.3,18.2,19.3L18.2,19.3z M28.1,9.6
		c1.1,1.2,2.2,2.5,3.3,4c-1.1-0.1-2.2-0.1-3.3-0.1c-1.1,0-2.2,0-3.3,0.1C25.9,12.2,27,10.8,28.1,9.6z M38,19.3
		c-0.6-1-1.1-1.9-1.7-2.8c1.8,0.2,3.5,0.5,5.1,0.9c-0.5,1.6-1.1,3.2-1.8,4.8C39.1,21.2,38.6,20.2,38,19.3z M13.8,13.3
		c-0.5-2.7-0.6-5.2-0.3-7.2c0.3-1.7,0.9-2.9,1.7-3.3c0.9-0.5,2.3-0.4,4,0.2c2,0.7,4.2,2.2,6.4,4.1c0.3,0.2,0.6,0.5,0.8,0.8
		c-1.6,1.8-3.3,3.8-4.8,5.9c-1.2,0.1-2.3,0.2-3.5,0.4c-1.4,0.2-2.7,0.5-4,0.7C14,14.4,13.9,13.8,13.8,13.3z M11.1,31.8
		c-2.7-0.9-5-2.1-6.6-3.5C3.1,27.1,2.4,26,2.4,25c0-0.9,0.7-2.1,2-3.1c1.5-1.3,3.6-2.4,6.2-3.3c0.6-0.2,1.3-0.4,1.9-0.6
		c0.7,2.3,1.6,4.7,2.7,7.1c-0.5,1.1-1,2.2-1.4,3.2c-0.5,1.4-1,2.7-1.4,4C12,32.1,11.5,31.9,11.1,31.8z M19.2,47.1
		c-1.7,0.6-3.1,0.6-3.9,0.1c-0.8-0.5-1.4-1.6-1.7-3.3c-0.4-1.9-0.3-4.3,0.2-7c0.1-0.6,0.3-1.2,0.4-1.9c1.4,0.3,2.8,0.6,4.4,0.8
		c1,0.1,2.1,0.2,3.2,0.3c0.7,1,1.4,1.9,2.1,2.8c0.9,1.1,1.8,2.2,2.7,3.2c-0.4,0.3-0.7,0.7-1.1,1C23.3,45,21.1,46.4,19.2,47.1z
		 M42.5,36.4c0.6,2.8,0.6,5.4,0.3,7.4c-0.3,1.8-1,3-1.8,3.5s-2.1,0.4-3.7-0.1c-1.8-0.6-3.9-1.9-6-3.7c-0.5-0.4-0.9-0.8-1.4-1.3
		c0.9-1,1.9-2.2,2.9-3.4c0.6-0.8,1.2-1.7,1.9-2.6c1-0.1,1.9-0.2,2.9-0.3c1.7-0.2,3.3-0.5,4.7-0.9C42.3,35.5,42.4,35.9,42.5,36.4z
		 M51.7,28.3c-1.6,1.3-4,2.5-6.8,3.5c-0.3,0.1-0.6,0.2-0.9,0.3c-0.4-1.4-0.9-2.8-1.6-4.2C42,27,41.6,26,41.1,25
		c0.4-0.9,0.8-1.8,1.2-2.7c0.6-1.5,1.1-3,1.6-4.4c0.6,0.2,1.1,0.3,1.7,0.5c2.6,0.9,4.8,2.1,6.3,3.3c1.3,1.1,2,2.2,2,3.2
		C53.8,26,53.1,27.1,51.7,28.3z"/>
</g>
</svg>
