<?xml version="1.0" encoding="utf-8"?>
<!-- Generator: Adobe Illustrator 24.2.3, SVG Export Plug-In . SVG Version: 6.00 Build 0)  -->
<svg version="1.1" id="Layer_1" xmlns="http://www.w3.org/2000/svg" xmlns:xlink="http://www.w3.org/1999/xlink" x="0px" y="0px"
	 viewBox="0 0 72 54" style="enable-background:new 0 0 72 54;" xml:space="preserve">
<style type="text/css">
	.st0{fill:#4682B4;}
</style>
<path class="st0" d="M34,40.8C33.9,40.9,33.9,40.9,34,40.8z M62,31c-2.3,0-4.5,0.5-6.5,1.5c-0.7-1.3-1.3-2.5-1.5-3.4
	c-0.1-1-0.3-1.6-0.1-2.8s0.9-2.9,0.9-3.1c0-0.1-0.2-0.7-1.6-0.8c-1.5,0-2.7,0.3-2.8,0.7c-0.3,0.7-0.5,1.4-0.6,2.1
	c-0.3,1.3-2.9,6-4.4,8.5c-0.5-1-0.9-1.8-1-2.5c-0.1-1-0.3-1.6-0.1-2.8c0.2-1.2,0.9-2.9,0.9-3.1c0-0.1-0.2-0.7-1.6-0.8
	c-1.4,0-2.7,0.3-2.8,0.7c-0.1,0.4-0.3,1.3-0.6,2.1c-0.3,0.9-3.8,8.7-4.7,10.7c-0.5,1-0.9,1.9-1.2,2.4c0,0.1-0.1,0.1-0.1,0.2
	c0-0.1,0.1-0.1,0.1-0.1c-0.2,0.5-0.4,0.8-0.4,0.8l0,0c-0.2,0.4-0.4,0.7-0.5,0.7s-0.2-0.9,0-2.2c0.5-2.7,1.8-7,1.8-7.1
	s0.2-0.8-0.8-1.2c-1-0.4-1.4,0.2-1.5,0.2s-0.2,0.2-0.2,0.2s1.1-4.8-2.2-4.8c-2.1,0-4.9,2.3-6.4,4.3c-0.9,0.5-2.8,1.5-4.8,2.6
	c-0.8,0.4-1.6,0.9-2.3,1.3c-0.1-0.1-0.1-0.1-0.2-0.2c-4-4.3-11.5-7.3-11.1-13.1c-0.2-1.8,0.6-7.3,14-14c11-5.5,19.8-4,21.4-0.6
	c2.2,4.8-4.7,13.7-16.2,15c-4.4,0.5-6.7-1.2-7.2-1.8c-0.6-0.7-0.7-0.7-0.9-0.6c-0.4,0.2-0.1,0.8,0,1.1c0.3,0.9,1.7,2.5,4.1,3.3
	c2.1,0.6,7.2,1,13.4-1.4c6.9-2.7,12.4-10.1,10.8-16.4S33-1.8,23,1.7c-5.9,2.1-12.3,5.4-16.9,9.7c-5.5,5.1-6.4,9.6-6,11.5
	c1.3,6.6,10.4,10.9,14,14.1c-0.2,0.1-0.3,0.2-0.5,0.3c-1.8,0.9-8.8,4.6-10.5,8.4c-2,4.4,0.3,7.5,1.8,7.9c4.7,1.3,9.5-1,12.1-4.9
	s2.3-8.9,1.1-11.2v-0.1c0.5-0.3,1-0.6,1.4-0.8c0.9-0.6,1.8-1.1,2.6-1.5c-0.4,1.2-0.8,2.7-0.9,4.8c-0.2,2.5,0.8,5.7,2.1,6.9
	c0.6,0.6,1.3,0.6,1.7,0.6c1.6,0,2.2-1.3,3-2.8c1-1.9,1.8-4,1.8-4s-1.1,5.9,1.8,5.9c1.1,0,2.1-1.4,2.6-2.1l0,0c0,0,0,0,0.1-0.1
	c0.1-0.2,0.2-0.3,0.2-0.3l0,0c0.4-0.7,1.4-2.4,2.8-5.2c1.8-3.6,3.6-8,3.6-8c0.2,1,0.4,2,0.7,2.9c0.3,1.1,1,2.2,1.5,3.4
	c-0.4,0.6-0.7,0.9-0.7,0.9l0,0c-0.3,0.4-0.7,0.9-1.1,1.4c-1.4,1.7-3.1,3.7-3.4,4.2c-0.3,0.7-0.2,1.2,0.3,1.5
	c0.4,0.3,1.1,0.3,1.8,0.3c1.3-0.1,2.2-0.4,2.6-0.6c0.8-0.3,1.6-0.7,2.3-1.2c1.4-1,2.3-2.5,2.2-4.5c0-1.1-0.4-2.2-0.8-3.2
	c0.1-0.2,0.3-0.4,0.4-0.6c2.2-3.3,3.9-6.8,3.9-6.8c0.2,1,0.4,2,0.7,2.9s0.8,1.9,1.3,2.9c-2.1,1.7-3.4,3.7-3.8,5
	c-0.8,2.4-0.2,3.5,1,3.7c0.6,0.1,1.3-0.1,1.9-0.4c0.9-0.3,1.7-0.7,2.4-1.2c1.4-1,2.8-2.5,2.7-4.5c0-0.9-0.3-1.8-0.6-2.6
	c1.8-0.7,4.1-1.1,7-0.8c6.3,0.7,7.5,4.6,7.3,6.3s-1.6,2.5-2,2.8S67.9,43,68,43.2c0.1,0.3,0.3,0.3,0.6,0.2c0.5-0.1,3.3-1.3,3.4-4.4
	C72.2,35.2,68.5,31,62,31L62,31z M13.7,47.3c-2.1,2.3-5,3.1-6.2,2.4c-1.3-0.8-0.8-4.1,1.7-6.5c1.6-1.5,3.6-2.8,4.9-3.6
	c0.3-0.2,0.7-0.4,1.3-0.8c0.1-0.1,0.1-0.1,0.1-0.1c0.1-0.1,0.2-0.1,0.3-0.2C16.8,41.9,15.9,44.9,13.7,47.3L13.7,47.3z M28.8,37
	c-0.7,1.8-2.2,6.3-3.2,6c-0.8-0.2-1.3-3.6-0.2-7c0.6-1.7,1.8-3.7,2.5-4.5c1.1-1.3,2.4-1.7,2.7-1.2C31,31,29.3,35.9,28.8,37z
	 M41.3,43c-0.3,0.2-0.6,0.3-0.7,0.2c-0.1-0.1,0.1-0.3,0.1-0.3s1.6-1.7,2.2-2.4c0.4-0.4,0.8-1,1.2-1.6c0,0.1,0,0.1,0,0.2
	C44.1,41.1,42.2,42.5,41.3,43L41.3,43z M50.9,40.8c-0.2-0.2-0.2-0.7,0.6-2.3c0.3-0.6,1-1.7,2.1-2.8c0.1,0.4,0.2,0.8,0.2,1.2
	C53.8,39.5,52,40.4,50.9,40.8z"/>
</svg>
