<?xml version="1.0" encoding="utf-8"?>
<!-- Generator: Adobe Illustrator 24.2.3, SVG Export Plug-In . SVG Version: 6.00 Build 0)  -->
<svg version="1.1" id="Layer_1" xmlns="http://www.w3.org/2000/svg" xmlns:xlink="http://www.w3.org/1999/xlink" x="0px" y="0px"
	 viewBox="0 0 241.7 241.7" style="enable-background:new 0 0 241.7 241.7;" xml:space="preserve">
<style type="text/css">
	.st0{fill:#F5F5F5;}
</style>
<g>
	<path class="st0" d="M0.2,118.8c0.5-0.9,0.9-1.8,1.4-2.6c1.4-2,3.3-3.6,5.8-3.6c8.9-0.1,17.9-0.2,26.8,0.1c3.8,0.1,6.6,3.5,7,7.1
		c0.4,3.9-1.8,7.4-5.5,8.6c-1.4,0.5-2.9,0.6-4.4,0.6c-6.9,0.1-13.8-0.1-20.7,0.1c-5.1,0.1-8.7-1.6-10.5-6.5
		C-0.1,121.1-0.1,120.1,0.2,118.8z"/>
	<path class="st0" d="M119.1,241.5c-1.2-0.5-1.8-0.9-2.6-1.4c-2-1.4-3.6-3.3-3.6-5.8c-0.1-8.9-0.2-17.9,0.1-26.8
		c0.1-3.8,3.5-6.7,7.1-7c3.9-0.4,7.4,1.8,8.7,5.4c0.5,1.4,0.6,2.9,0.6,4.4c0.1,6.8-0.1,13.5,0.1,20.3c0.2,5.2-1.5,9-6.5,11
		C121.2,241.8,120.7,241.8,119.1,241.5z"/>
	<path class="st0" d="M121.2,60c33.1,0.6,60.6,27,60.4,60.9c-0.2,33.4-27.2,60.8-61,60.5c-34.6-0.4-60.5-28.5-60.2-61
		C60.6,87.1,87.5,60.1,121.2,60z M76.9,120.5c-0.3,24.4,18.8,43.9,43.7,44.2C145,165,164.7,146.2,165,121
		c0.3-24.4-18.8-43.9-43.7-44.2C96.9,76.4,77.2,95.2,76.9,120.5z"/>
	<path class="st0" d="M112.6,20.5c0-3.7-0.1-7.4,0-11.1c0.1-1.7,0.4-3.5,1.1-5c1.5-3.2,5.1-4.9,8.4-4.4c3.6,0.6,6.4,3.4,6.9,7
		c0.1,0.7,0.2,1.4,0.2,2.1c0,7.5,0,15.1,0,22.6c0,1.3-0.2,2.7-0.6,3.9c-1.3,3.7-4.9,5.7-8.7,5.3c-3.6-0.4-6.8-3.3-7-7.1
		C112.6,29.5,112.6,25,112.6,20.5C112.5,20.5,112.7,20.5,112.6,20.5z"/>
	<path class="st0" d="M221,129c-3.9,0-7.9,0.1-11.8,0c-5.2-0.2-8.8-3.8-8.6-8.6c0.1-3.7,2.8-7,6.4-7.7c0.9-0.2,1.9-0.3,2.8-0.3
		c7.5,0,15.1,0,22.6,0c4,0,7,1.6,8.6,5.3c2.1,4.8-1.1,10.5-6.4,11.1c-3.3,0.4-6.6,0.2-9.9,0.2C223.5,129.1,222.2,129.1,221,129
		C221,129.1,221,129,221,129z"/>
	<path class="st0" d="M208.7,200.4c-0.2,3.1-1.6,5.5-4.4,7c-2.8,1.5-5.6,1.3-8.2-0.4c-0.8-0.5-1.5-1.2-2.1-1.8
		c-5.3-5.3-10.6-10.5-15.8-15.8c-0.7-0.7-1.3-1.4-1.9-2.1c-2.3-3.3-1.8-7.8,1.2-10.5c3.1-2.8,7.7-3.1,10.7-0.2
		c6.2,6,12.3,12.2,18.3,18.3C208,196.3,208.6,198.2,208.7,200.4z"/>
	<path class="st0" d="M66.8,58.7c-0.1,3.3-1.5,5.7-4.4,7.3c-2.9,1.5-5.8,1.2-8.4-0.6c-0.6-0.4-1.1-0.9-1.6-1.4
		C46.9,58.5,41.5,53,36,47.6c-1.9-1.9-3.1-4-3-6.7c0.2-3.4,1.8-5.8,4.9-7.2c3-1.3,5.9-0.8,8.4,1.3c1.3,1.1,2.5,2.4,3.7,3.6
		c4.6,4.6,9.2,9.2,13.8,13.8C65.6,54.2,66.8,56.2,66.8,58.7z"/>
	<path class="st0" d="M175.2,59.8c0-3.3,0.8-5.2,2.3-6.8c5.9-5.9,11.7-11.8,17.7-17.7c3.3-3.2,8-3.1,11.2-0.1c3.1,3,3.5,8,0.3,11.2
		c-5.9,6.2-12,12.2-18.2,18.2c-2.5,2.4-5.6,2.8-8.8,1.4C176.8,64.7,175.3,62.1,175.2,59.8z"/>
	<path class="st0" d="M66.8,182c0,2.8-0.7,4.7-2.1,6.1c-6,6-11.9,12.1-18,18c-3.3,3.2-8.1,3-11.2-0.1c-3-3-3.3-7.9-0.3-11.1
		c5.9-6.2,12-12.2,18.2-18.2c2.5-2.5,5.7-2.9,9-1.3C65.2,176.9,66.7,179.4,66.8,182z"/>
</g>
</svg>
