<?xml version="1.0" encoding="utf-8"?>
<!-- Generator: Adobe Illustrator 24.2.3, SVG Export Plug-In . SVG Version: 6.00 Build 0)  -->
<svg version="1.1" id="Layer_1" xmlns="http://www.w3.org/2000/svg" xmlns:xlink="http://www.w3.org/1999/xlink" x="0px" y="0px"
	 viewBox="0 0 99.6 98.3" style="enable-background:new 0 0 99.6 98.3;" xml:space="preserve">
<style type="text/css">
	.st0{fill:#4682B4;}
</style>
<g>
	<g>
		<polygon class="st0" points="50.3,80.6 48.9,80.4 48.9,80.4 50.3,80.6 		"/>
		<path class="st0" d="M68.9,25.6c-0.9,0.2-1.9-0.1-2.5-0.8c-0.6-0.7-0.9-1.7-0.6-2.6L72.2,0L37.9,6.7l-2.1,35.7l9.5-2.2
			c0.9-0.2,1.8,0.1,2.5,0.7c0.7,0.6,0.9,1.6,0.8,2.5l-2.8,13.8l5.7-1.7c0.3-0.1,0.5-0.1,0.8-0.1c0.7,0,1.3,0.2,1.8,0.7
			c0.7,0.6,1,1.6,0.8,2.5l-4.4,21.3l0-0.1l28.1-56L68.9,25.6z"/>
	</g>
	<g>
		<path class="st0" d="M67.9,14.8l-17.2,3.1c-0.3,0.1-0.6,0.1-0.9,0l-12.5-2.2l-1.6,26.7l9.5-2.2c0.9-0.2,1.8,0.1,2.5,0.7
			c0.7,0.6,0.9,1.6,0.8,2.5l-2.8,13.8l5.7-1.7c0.3-0.1,0.5-0.1,0.8-0.1c0.7,0,1.3,0.2,1.8,0.7c0.7,0.6,1,1.6,0.8,2.5l-4.4,21.3
			l0-0.1l28.1-56l-9.6,1.9c-0.9,0.2-1.9-0.1-2.5-0.8c-0.6-0.7-0.9-1.7-0.6-2.6L67.9,14.8z"/>
		<path class="st0" d="M96.6,9.6l-25.6,4.7l-2.5,8.6l9.7-1.9c1-0.2,2,0.2,2.7,1c0.6,0.8,0.7,1.9,0.3,2.8L52.9,81.2L52.4,82
			c-0.5,0.8-1.4,1.2-2.2,1.2c-0.3,0-0.7-0.1-1-0.2c-1.2-0.5-1.9-1.7-1.6-3L52,58.2L46.3,60c-0.9,0.3-1.9,0.1-2.6-0.6
			c-0.7-0.6-1-1.6-0.8-2.5L45.7,43l-9.4,2.2c-0.3,0.1-0.5,0.1-0.8,0.1c-0.7,0-1.4-0.4-1.9-0.9c-0.5-0.5-0.7-1.2-0.7-1.9l1.6-27.2
			L3,9.5c-2.1-0.4-3.7,1.9-2.7,3.8L48.1,97c1,1.7,3.5,1.7,4.4,0l46.8-83.7C100.4,11.4,98.8,9.2,96.6,9.6z"/>
		<polygon class="st0" points="50.3,80.6 48.9,80.4 50.3,80.6 		"/>
	</g>
</g>
</svg>
